HIERARCHY
ROOT root
{
	OFFSET	0	13.1	24.9
	CHANNELS 6  Xposition Yposition Zposition Xrotation Yrotation Zrotation
	JOINT spine_1
	{
		OFFSET	0	9.99999	0
		CHANNELS 3  Xrotation Yrotation Zrotation
		JOINT spine_2
		{
			OFFSET	0	112	-10
			CHANNELS 3  Xrotation Yrotation Zrotation
			JOINT spine_3
			{
				OFFSET	0	206.5	19.3
				CHANNELS 3  Xrotation Yrotation Zrotation
				JOINT spine_4
				{
					OFFSET	0	110.4	14.6
					CHANNELS 3  Xrotation Yrotation Zrotation
					JOINT neck_1
					{
						OFFSET	0	71.8	-50.3
						CHANNELS 3  Xrotation Yrotation Zrotation
						JOINT neck_2
						{
							OFFSET	0	86.2	-25.8
							CHANNELS 3  Xrotation Yrotation Zrotation
							JOINT head_ee
							{
								OFFSET	0	179.8	-8.7
								CHANNELS 3  Xrotation Yrotation Zrotation
								End Site
								{
									OFFSET	1	0	0
								}
							}
						}
					}
					JOINT left_clavicle
					{
						OFFSET	-43.2	22.4	-70.8
						CHANNELS 3  Xrotation Yrotation Zrotation
						JOINT left_shoulder
						{
							OFFSET	-93.9	-5.79999	48.7
							CHANNELS 3  Xrotation Yrotation Zrotation
							JOINT left_elbow
							{
								OFFSET	-291.4	-30.8	15.2
								CHANNELS 3  Xrotation Yrotation Zrotation
								JOINT left_lowarm_twist
								{
									OFFSET	-110.7	-3.89999	13.6
									CHANNELS 3  Xrotation Yrotation Zrotation
									JOINT left_hand
									{
										OFFSET	-110.7	-3.89999	13.6
										CHANNELS 3  Xrotation Yrotation Zrotation
										JOINT left_ee
										{
											OFFSET	-80.8	-5.10001	12.1
											CHANNELS 3  Xrotation Yrotation Zrotation
											End Site
											{
												OFFSET	1	0	0
											}
										}
									}
								}
							}
						}
					}
					JOINT right_clavicle
					{
						OFFSET	43.2	22.4	-70.8
						CHANNELS 3  Xrotation Yrotation Zrotation
						JOINT right_shoulder
						{
							OFFSET	93.9	-5.79999	48.7
							CHANNELS 3  Xrotation Yrotation Zrotation
							JOINT right_elbow
							{
								OFFSET	291.4	-30.8	15.2
								CHANNELS 3  Xrotation Yrotation Zrotation
								JOINT right_lowarm_twist
								{
									OFFSET	110.7	-3.89999	13.6
									CHANNELS 3  Xrotation Yrotation Zrotation
									JOINT right_hand
									{
										OFFSET	110.7	-3.89999	13.6
										CHANNELS 3  Xrotation Yrotation Zrotation
										JOINT right_ee
										{
											OFFSET	80.8	-5.10001	12.1
											CHANNELS 3  Xrotation Yrotation Zrotation
											End Site
											{
												OFFSET	1	0	0
											}
										}
									}
								}
							}
						}
					}
				}
			}
		}
	}
	JOINT left_hip
	{
		OFFSET	-82.8	-127.5	0.300001
		CHANNELS 3  Xrotation Yrotation Zrotation
		JOINT left_knee
		{
			OFFSET	-28.2	-396.7	2.2
			CHANNELS 3  Xrotation Yrotation Zrotation
			JOINT left_ankle
			{
				OFFSET	-11.7	-411.3	35.4
				CHANNELS 3  Xrotation Yrotation Zrotation
				JOINT left_toes
				{
					OFFSET	0	-60	-88.6
					CHANNELS 3  Xrotation Yrotation Zrotation
					JOINT left_foot_ee
					{
						OFFSET	-22.5	-16.5	-42.2
						CHANNELS 3  Xrotation Yrotation Zrotation
						End Site
						{
							OFFSET	1	0	0
						}
					}
				}
			}
		}
	}
	JOINT right_hip
	{
		OFFSET	82.8	-127.5	0.300001
		CHANNELS 3  Xrotation Yrotation Zrotation
		JOINT right_knee
		{
			OFFSET	28.2	-396.7	2.2
			CHANNELS 3  Xrotation Yrotation Zrotation
			JOINT right_ankle
			{
				OFFSET	11.7	-411.3	35.4
				CHANNELS 3  Xrotation Yrotation Zrotation
				JOINT right_toes
				{
					OFFSET	0	-60	-88.6
					CHANNELS 3  Xrotation Yrotation Zrotation
					JOINT right_foot_ee
					{
						OFFSET	22.5	-16.5	-42.2
						CHANNELS 3  Xrotation Yrotation Zrotation
						End Site
						{
							OFFSET	1	0	0
						}
					}
				}
			}
		}
	}
}
MOTION
Frames: 16
Frame Time: 0.02
998.295 722.316 -1095.43 166.357 -50.9647 163.534 -7.15626 0.412134 3.11842 -7.15087 0.212966 3.1383 -7.12662 -0.834776 3.03283 -7.13928 -0.345569 3.12649 6.34736 14.4744 0.427868 7.14557 24.2218 0.850194 -0.0 0.0 -0.0 1.96084 6.26014 4.28451 7.10989 -27.0548 57.0167 3.03566 -56.3647 1.62678 49.2308 -0.914295 -6.03131 -6.89555 -24.6151 -69.0797 -0.0 0.0 -0.0 11.7091 23.8233 -22.946 -29.0758 36.7926 -52.0952 0.166459 4.71399 -0.00685153 -84.8744 8.43622 -5.18765 -12.0464 -33.5155 63.6422 0.0 0.0 0.0 -31.6332 14.0872 12.4787 -9.55281 0.273903 1.43878 31.1973 9.1075 -4.02056 -32.2887 0.0 0.0 -0.0 0.0 -0.0 13.2289 29.7035 0.259228 4.87827 0.231402 0.712448 -13.7334 -7.82089 -2.0565 21.2583 -0.0 -0.0 0.0 0.0 0.0 
1015.85 711.151 -1071.13 165.084 -51.2616 161.541 -7.05141 0.454231 3.26675 -7.04551 0.245553 3.289 -7.01762 -0.847725 3.18745 -7.03164 -0.333973 3.28121 7.74388 14.8564 0.0253348 8.68505 24.9172 0.168051 -0.0 0.0 -0.0 1.73505 5.477 3.81211 6.18015 -27.7335 57.4703 2.57661 -51.9138 1.25446 48.9473 -0.894479 -6.00089 -6.96584 -23.9453 -70.0166 -0.0 0.0 -0.0 12.0086 24.4957 -23.563 -28.0751 36.9134 -52.4749 0.200104 5.66112 -0.00989374 -83.8723 8.31067 -5.21089 -12.0181 -33.286 63.998 0.0 0.0 0.0 -30.364 14.0635 11.7883 -13.4146 0.315958 2.02971 26.7062 10.7326 -3.53559 -31.9866 0.0 0.0 -0.0 0.0 -0.0 12.9271 29.602 -0.349037 3.34605 0.152182 0.490786 -14.0289 -7.0343 -2.102 22.4634 -0.0 -0.0 0.0 0.0 0.0 
1037.74 721.78 -1054.07 164.698 -51.3587 161.112 -7.3 0.512124 3.31256 -7.29394 0.30042 3.33839 -7.26162 -0.825912 3.24863 -7.27622 -0.302788 3.33818 8.28736 15.0963 -0.179386 9.3066 25.3798 -0.163997 -0.0 0.0 -0.0 1.4735 5.86464 3.36955 4.4721 -27.9575 58.0614 2.28708 -48.5599 1.0318 49.0148 -0.899189 -6.00815 -7.08008 -23.3383 -71.7691 -0.0 0.0 -0.0 12.3325 24.8855 -24.2646 -27.1297 37.1239 -52.9943 0.231515 6.54258 -0.0132326 -83.1653 8.22184 -5.22595 -12.1009 -33.4764 64.6578 0.0 0.0 0.0 -29.7285 13.9995 10.724 -16.1626 0.321593 2.45126 22.0662 13.1247 -3.00095 -32.0011 0.0 0.0 -0.0 0.0 -0.0 12.8521 30.4372 -1.15277 -0.318377 -0.0129788 -0.0471343 -12.6195 -7.40999 -1.88782 24.0334 -0.0 -0.0 0.0 0.0 0.0 
1059.57 717.448 -1034.82 162.968 -51.2437 160.68 -7.49478 0.520549 3.16209 -7.48928 0.318387 3.18877 -7.45762 -0.769801 3.11086 -7.47103 -0.269101 3.1933 10.2109 15.6042 -0.315629 11.3958 25.8901 -0.61309 -0.0 0.0 -0.0 1.20479 5.59383 2.85687 4.25567 -25.9776 58.4551 1.90567 -43.3459 0.757377 48.7613 -0.881567 -5.98089 -7.19874 -21.3976 -73.2615 -0.0 0.0 -0.0 12.3373 23.6303 -24.4036 -26.4215 37.4068 -51.8295 0.374557 10.5116 -0.0344553 -84.7464 8.42021 -5.19074 -11.6554 -31.5539 64.1007 0.0 0.0 0.0 -24.094 15.6049 9.69779 -27.0786 0.14483 4.11446 18.4952 12.9947 -2.55524 -31.2127 0.0 0.0 -0.0 0.0 -0.0 11.9191 30.4164 -2.946 -3.7337 -0.13562 -0.556857 -7.46578 -8.92041 -1.1089 24.4836 -0.0 -0.0 0.0 0.0 0.0 
1080.65 727.911 -1017.19 162.164 -50.9116 159.974 -7.80634 0.555927 3.09727 -7.80108 0.357812 3.12632 -7.76754 -0.728215 3.06137 -7.78054 -0.235839 3.13787 11.6 15.6904 -1.26785 12.9927 26.5581 -2.01921 -0.0 0.0 -0.0 1.45887 5.82093 3.33917 3.80123 -24.1434 60.0205 1.62577 -38.8435 0.57325 48.2036 -0.843227 -5.92065 -7.39117 -18.957 -76.1262 -0.0 0.0 -0.0 12.4369 23.1397 -24.6802 -25.4813 37.6525 -50.1667 0.375823 10.5463 -0.0346866 -84.8229 8.42978 -5.1889 -11.3407 -30.1696 63.5243 0.0 0.0 0.0 -20.4989 16.3153 7.83866 -35.351 -0.197794 5.33658 16.498 12.8627 -2.29785 -31.8863 0.0 0.0 -0.0 0.0 -0.0 10.7273 30.6423 -3.47304 -6.20449 -0.205281 -0.929615 -1.17566 -10.8946 -0.172673 24.5879 -0.0 -0.0 0.0 0.0 0.0 
1096.49 727.611 -1010.98 161.816 -50.349 159.884 -7.98362 0.589254 3.0856 -7.97841 0.391813 3.1168 -7.94277 -0.702327 3.06186 -7.95578 -0.210198 3.13427 12.5592 15.7653 -1.84423 14.0997 26.9706 -2.90718 -0.0 0.0 -0.0 1.76512 5.74263 3.8887 3.97058 -23.1512 62.1744 1.45038 -35.6942 0.467004 47.9587 -0.826578 -5.89409 -7.50257 -17.1408 -77.6686 -0.0 0.0 -0.0 12.5911 22.9275 -25.0556 -23.5024 38.4425 -48.8625 0.378834 10.6289 -0.0352399 -84.925 8.44254 -5.18642 -11.1299 -29.2052 63.1346 0.0 0.0 0.0 -17.4138 16.4879 5.9747 -40.3209 -0.487305 6.04314 14.777 12.8943 -2.07235 -32.5573 0.0 0.0 -0.0 0.0 -0.0 9.85414 30.4502 -3.60756 -7.41898 -0.233611 -1.11383 3.9676 -12.1655 0.576049 24.7334 -0.0 -0.0 0.0 0.0 0.0 
1128.81 737.92 -999.98 161.201 -50.6059 159.73 -8.4838 0.619657 3.05701 -8.4787 0.423972 3.0902 -8.44092 -0.689431 3.04204 -8.45378 -0.200589 3.11267 11.5519 15.8972 -1.75205 13.0633 27.3495 -2.65857 -0.0 0.0 -0.0 1.74202 7.60705 3.99809 2.55266 -21.9751 64.547 1.31294 -33.038 0.3894 48.013 -0.830263 -5.89999 -7.48411 -16.4551 -76.69 -0.0 0.0 -0.0 12.701 22.7919 -25.3224 -21.7873 38.3714 -47.152 0.409804 11.4756 -0.041177 -84.9982 8.4517 -5.18463 -11.1422 -29.0751 63.7056 0.0 0.0 0.0 -13.8127 16.6086 3.87666 -43.5602 -0.708659 6.48934 11.3549 12.7506 -1.6123 -33.7297 0.0 0.0 -0.0 0.0 -0.0 7.06307 30.5645 -2.42128 -12.5405 -0.309928 -1.89573 11.6797 -12.7554 1.65653 26.2586 -0.0 -0.0 0.0 0.0 0.0 
1144.3 740.891 -989.171 160.048 -49.9754 158.749 -8.68859 0.468898 3.05248 -8.68344 0.273805 3.0761 -8.65443 -0.836337 2.97296 -8.66658 -0.356551 3.06762 10.9766 15.986 -1.78239 12.4862 27.6636 -2.62079 -0.0 0.0 -0.0 1.85129 8.33082 4.24829 1.67232 -21.2391 66.3379 1.22418 -31.2323 0.342181 50.3059 -0.990795 -6.14575 -7.50544 -14.6268 -75.7564 -0.0 0.0 -0.0 12.5648 21.8271 -25.0929 -22.0433 38.8558 -46.3278 0.409996 11.4808 -0.0412152 -85.2152 8.47881 -5.17924 -11.3557 -29.7382 65.1273 0.0 0.0 0.0 -13.1522 17.8836 2.80362 -46.5336 -0.933852 6.88753 8.93824 12.6292 -1.27933 -34.1456 0.0 0.0 -0.0 0.0 -0.0 5.77994 30.5792 -1.89644 -15.887 -0.32194 -2.40898 15.4102 -11.8429 2.15246 26.872 -0.0 -0.0 0.0 0.0 0.0 
1160.12 740.543 -988.729 159.035 -48.8765 156.991 -8.72462 0.397308 3.26713 -8.71871 0.188722 3.28576 -8.69209 -0.992625 3.13807 -8.7055 -0.484846 3.2553 10.6243 16.2158 -1.59945 12.1311 27.9616 -2.34958 -0.0 0.0 -0.0 2.05927 8.6163 4.6355 1.57909 -20.2419 67.5886 1.16864 -30.066 0.313869 52.595 -1.16078 -6.38457 -7.562 -12.6738 -75.3701 -0.0 0.0 -0.0 12.4454 21.0684 -24.8793 -22.1721 38.8103 -45.9939 0.425305 11.8975 -0.0443169 -85.2203 8.47945 -5.17912 -11.5407 -30.3082 66.4214 0.0 0.0 0.0 -11.9347 18.7248 1.57547 -48.3193 -1.07897 7.12095 7.08185 12.9036 -1.01998 -35.0067 0.0 0.0 -0.0 0.0 -0.0 4.41802 31.3203 -2.45338 -18.321 -0.311842 -2.78226 17.3277 -10.274 2.39723 27.171 -0.0 -0.0 0.0 0.0 0.0 
1184.28 745.007 -980.125 157.901 -47.7678 156.376 -8.94076 0.466894 3.37215 -8.93447 0.251496 3.39499 -8.90205 -0.984757 3.2589 -8.91658 -0.458026 3.37336 10.1825 16.3688 -1.70633 11.7157 28.42 -2.42915 -0.0 0.0 -0.0 2.19412 8.85524 4.88889 0.767195 -18.9835 69.2859 1.08422 -28.2391 0.272739 54.4661 -1.30677 -6.57468 -7.61261 -11.3419 -75.2734 -0.0 0.0 -0.0 12.298 20.6441 -24.572 -21.8985 38.9929 -45.9956 0.466417 13.01 -0.0531831 -85.0891 8.46306 -5.18238 -11.695 -30.8048 67.4623 0.0 0.0 0.0 -9.40773 19.5189 1.24887 -49.4149 -1.17159 7.26192 5.51706 13.4227 -0.798942 -35.7736 0.0 0.0 -0.0 0.0 -0.0 2.2779 32.3341 -2.17525 -20.3997 -0.290673 -3.10049 18.3482 -9.14036 2.52524 27.3275 -0.0 -0.0 0.0 0.0 0.0 
1189.58 759.631 -966.856 158.947 -47.4761 158.55 -9.03092 0.625345 3.44142 -9.02442 0.405226 3.47419 -8.98049 -0.874183 3.38684 -8.99634 -0.328666 3.48225 8.51808 16.0423 -2.84887 10.0849 29.2938 -3.55802 -0.0 0.0 -0.0 3.11219 9.23177 6.51812 0.223408 -17.9577 67.9456 0.734599 -19.9964 0.129508 56.9021 -1.50602 -6.81491 -7.37879 -12.7144 -71.478 -0.0 0.0 -0.0 10.9 18.1623 -21.5487 -13.6108 44.6097 -47.267 0.571634 15.8107 -0.0793761 -84.8894 8.4381 -5.18729 -11.4612 -29.6745 67.2332 0.0 0.0 0.0 -7.1681 19.2495 0.973721 -45.2085 -0.830927 6.71149 3.03157 14.9522 -0.443246 -37.9718 0.0 0.0 -0.0 0.0 -0.0 0.561737 32.7305 -3.54702 -15.3641 -0.32204 -2.32875 15.227 -7.34842 2.12237 24.7826 -0.0 -0.0 0.0 0.0 0.0 
1201.37 759.679 -953.761 159.066 -46.478 159.17 -8.89298 0.779204 3.46442 -8.88648 0.557314 3.50691 -8.83205 -0.734862 3.47408 -8.84884 -0.177335 3.54643 7.35521 15.8317 -3.67505 8.93615 29.919 -4.33473 -0.0 0.0 -0.0 3.82732 9.65455 7.78472 -0.119485 -17.1924 67.2712 0.505546 -14.0598 0.0623413 58.8339 -1.67121 -6.99932 -7.20733 -13.4831 -68.9149 -0.0 0.0 -0.0 10.4488 16.9848 -20.5995 -5.06031 49.2176 -48.5211 0.671104 18.3892 -0.108631 -84.6331 8.40604 -5.19345 -11.2975 -28.8802 66.9851 0.0 0.0 0.0 -5.08422 18.0181 0.366732 -42.2533 -0.61631 6.31081 1.28381 16.0643 -0.188991 -39.512 0.0 0.0 -0.0 0.0 -0.0 -0.976625 33.2744 -4.2042 -12.0029 -0.305205 -1.81338 12.7914 -6.09938 1.80064 22.9046 -0.0 -0.0 0.0 0.0 0.0 
1212.42 761.197 -941.048 157.675 -45.9356 159.076 -9.03149 0.896338 3.40809 -9.02529 0.677789 3.45814 -8.96372 -0.612663 3.47026 -8.98052 -0.057267 3.52339 6.41727 15.6988 -4.21901 7.98625 30.3553 -4.78496 -0.0 0.0 -0.0 4.24801 10.7309 8.54167 -0.641706 -16.5927 66.8704 0.354889 -9.971 0.0309583 60.1702 -1.78911 -7.12361 -7.08149 -13.9857 -67.1579 -0.0 0.0 -0.0 10.4958 16.0146 -20.7535 1.55308 52.328 -50.1703 0.740796 20.1515 -0.131634 -84.3494 8.3705 -5.2001 -11.2022 -28.3544 67.0216 0.0 0.0 0.0 -0.956099 17.1826 2.15815 -40.2055 -0.479892 6.02702 0.0790241 16.85 -0.0116889 -40.2244 0.0 0.0 -0.0 0.0 -0.0 -2.30458 33.542 -5.11705 -9.74161 -0.276884 -1.46759 11.0386 -5.36265 1.56476 21.4987 -0.0 -0.0 0.0 0.0 0.0 
1227.53 760.517 -949.877 157.79 -46.5806 158.422 -9.06335 0.529982 3.59215 -9.05623 0.300484 3.61855 -9.01694 -1.02641 3.48308 -9.03357 -0.463821 3.60128 5.67833 15.1746 -4.81453 7.18438 30.1107 -5.31375 -0.0 0.0 -0.0 4.75478 12.83 9.42589 -1.87654 -16.3519 67.2697 0.414037 -11.5909 0.0420233 61.4146 -1.90147 -7.23686 -7.37445 -11.7632 -70.6203 -0.0 0.0 -0.0 11.5604 15.032 -23.1952 -4.13243 52.1045 -41.1023 1.10542 28.7039 -0.282843 -83.5299 8.26767 -5.21832 -11.4259 -29.0992 68.7013 0.0 0.0 0.0 2.66487 16.8821 2.24273 -44.0411 -0.743669 6.55451 5.75586 13.8317 -0.833518 -40.196 0.0 0.0 -0.0 0.0 -0.0 -4.27374 34.6086 -3.52711 -7.17429 -0.228218 -1.07667 11.3373 -7.4826 1.60392 18.5739 -0.0 -0.0 0.0 0.0 0.0 
1244.8 774.324 -946.277 158.971 -46.2829 158.457 -9.00195 0.482396 3.72475 -8.99427 0.244573 3.74785 -8.95704 -1.12169 3.58463 -8.97456 -0.541902 3.71657 5.19549 14.8013 -5.26105 6.66354 29.9349 -5.7234 -0.0 0.0 -0.0 5.09163 14.4202 9.97793 -3.78212 -15.9357 68.3887 0.598512 -16.5145 0.0868581 63.4813 -2.09347 -7.41953 -7.72707 -9.09892 -75.6077 -0.0 0.0 -0.0 11.9375 14.4815 -24.0718 -7.2654 51.5158 -35.8983 1.38389 34.4303 -0.428806 -83.1153 8.21554 -5.22697 -11.817 -31.0271 69.0291 0.0 0.0 0.0 8.58377 15.1078 -0.244655 -51.5106 -1.35626 7.52662 13.5449 11.0369 -1.90383 -40.1294 0.0 0.0 -0.0 0.0 -0.0 -7.20904 36.1338 -1.38253 -5.29938 -0.181631 -0.792728 11.9347 -10.4889 1.68666 16.7935 -0.0 -0.0 0.0 0.0 0.0 
1260.07 771.151 -946.69 160.119 -47.2936 159.277 -8.61266 0.421396 3.58781 -8.60552 0.192392 3.60732 -8.57465 -1.09676 3.44213 -8.59077 -0.539743 3.57194 5.64645 13.3931 -6.09409 7.05065 28.1707 -6.80879 -0.0 0.0 -0.0 5.19613 15.397 10.1342 -5.25897 -16.0469 68.8558 0.685521 -18.7569 0.113224 65.5487 -2.29203 -7.59525 -7.79877 -7.70934 -75.7001 -0.0 0.0 -0.0 11.6811 15.0948 -23.4672 -7.90527 51.4302 -32.8438 1.56543 37.7897 -0.535838 -81.8295 8.05345 -5.25137 -12.1072 -32.5498 68.4806 0.0 0.0 0.0 12.1579 13.9711 -1.21869 -49.9668 -1.21928 7.33228 17.5372 8.98011 -2.42187 -40.181 0.0 0.0 -0.0 0.0 -0.0 -8.54238 36.6398 -0.308912 -4.01326 -0.144308 -0.598881 12.717 -14.1566 1.80136 15.318 -0.0 -0.0 0.0 0.0 0.0 
